<svg width="16" height="16" viewBox="0 0 16 16" fill="none" xmlns="http://www.w3.org/2000/svg">
<g clip-path="url(#clip0_31_296)">
<mask id="mask0_31_296" style="mask-type:luminance" maskUnits="userSpaceOnUse" x="1" y="1" width="14" height="14">
<path d="M14.5326 1.46729H1.46729V14.5326H14.5326V1.46729Z" fill="white"/>
</mask>
<g mask="url(#mask0_31_296)">
<path d="M7.99995 2.40196C11.0854 2.40196 13.5979 4.91452 13.5979 7.99995C13.5979 11.0854 11.0854 13.5979 7.99995 13.5979C4.91452 13.5979 2.40196 11.0854 2.40196 7.99995C2.40196 4.91452 4.91452 2.40196 7.99995 2.40196ZM7.99995 1.46729C4.39191 1.46729 1.46729 4.39191 1.46729 7.99995C1.46729 11.608 4.39191 14.5326 7.99995 14.5326C11.608 14.5326 14.5326 11.608 14.5326 7.99995C14.5326 4.39191 11.608 1.46729 7.99995 1.46729Z" fill="#A1A1A1"/>
<path d="M9.56783 10.6633L7.39697 8.28138V4.73364H8.603V7.81907L10.4522 9.85927L9.56783 10.6633Z" fill="#A1A1A1"/>
</g>
</g>
<defs>
<clipPath id="clip0_31_296">
<rect width="16" height="16" fill="white"/>
</clipPath>
</defs>
</svg>
