<svg width="14" height="14" viewBox="0 0 14 14" fill="none" xmlns="http://www.w3.org/2000/svg">
<path d="M11.8439 1.76385H10.3966V1.28144C10.3966 0.969884 10.1454 0.718628 9.83383 0.718628C9.52227 0.718628 9.27101 0.969884 9.27101 1.28144V1.76385H4.7484V1.28144C4.7484 0.969884 4.49715 0.718628 4.18559 0.718628C3.87403 0.718628 3.62278 0.969884 3.62278 1.28144V1.76385H2.17554C1.10016 1.76385 0.23584 2.62818 0.23584 3.70355V5.48245H13.8037V3.70355C13.8037 2.62818 12.9394 1.76385 11.864 1.76385H11.8439Z" fill="white"/>
<path d="M1.42185 6.68835H0.21582V11.3416C0.21582 12.417 1.08014 13.2813 2.15552 13.2813H11.844C12.9193 13.2813 13.7837 12.417 13.7837 11.3416V6.68835H1.42185ZM3.60276 8.83911H10.3867V10.0451H3.60276V8.83911Z" fill="white"/>
</svg>
