<svg width="12" height="15" viewBox="0 0 12 15" fill="none" xmlns="http://www.w3.org/2000/svg">
<path d="M6.04042 0.00512695C3.04544 0.00512695 0.613281 2.42724 0.613281 5.41216C0.613281 5.75387 0.653482 6.09558 0.713784 6.41719C0.854487 7.16091 1.16605 7.83427 1.56806 8.43729L6.03037 14.0654L10.4927 8.43729C10.9047 7.83427 11.2062 7.15086 11.347 6.41719C11.4073 6.08553 11.4475 5.75387 11.4475 5.41216C11.4475 2.42724 9.01529 0.00512695 6.02032 0.00512695H6.04042ZM6.04042 6.8393C5.20625 6.8393 4.53288 6.16593 4.53288 5.33176C4.53288 4.49759 5.20625 3.82422 6.04042 3.82422C6.87459 3.82422 7.54796 4.49759 7.54796 5.33176C7.54796 6.16593 6.87459 6.8393 6.04042 6.8393Z" fill="white"/>
</svg>
