<svg width="24" height="33" viewBox="0 0 24 33" fill="none" xmlns="http://www.w3.org/2000/svg">
<path d="M21.1557 12.5249C21.0658 12.4134 20.9568 12.4353 20.8997 12.4581C20.8518 12.4773 20.7422 12.5387 20.7573 12.6924C20.7756 12.8771 20.7858 13.0654 20.7877 13.2521C20.7959 14.0267 20.482 14.7856 19.9266 15.3341C19.3747 15.8791 18.6489 16.1728 17.876 16.1643C16.8204 16.1509 15.9448 15.6058 15.3439 14.5879C14.847 13.7463 15.0654 12.6607 15.2966 11.5113C15.4319 10.8385 15.5718 10.1428 15.5718 9.48069C15.5718 4.32517 12.0706 1.3508 9.98359 0.0366737C9.94042 0.00953902 9.89933 0 9.86294 0C9.80375 0 9.75687 0.0252655 9.73376 0.0407342C9.68896 0.0707693 9.61728 0.139218 9.64033 0.26039C10.4381 4.45382 8.05868 6.97593 5.53959 9.64608C2.94302 12.3984 0 15.518 0 21.1442C0 27.6815 5.37265 33 11.9766 33C17.414 33 22.2081 29.2473 23.6348 23.8741C24.6077 20.2104 23.5882 15.5435 21.1557 12.5249ZM12.2754 30.4694C10.6217 30.544 9.04907 29.9569 7.84786 28.82C6.65954 27.6951 5.97798 26.1254 5.97798 24.5132C5.97798 21.4877 7.14656 19.2666 10.2897 16.318C10.3411 16.2698 10.3938 16.2545 10.4397 16.2545C10.4813 16.2545 10.5174 16.2671 10.5422 16.2789C10.5944 16.3038 10.6804 16.3656 10.6688 16.4991C10.5564 17.7936 10.5584 18.8681 10.6745 19.6929C10.9714 21.7995 12.5293 23.215 14.5513 23.215C15.5426 23.215 16.4869 22.8456 17.2102 22.175C17.2942 22.0972 17.3879 22.1071 17.4239 22.1146C17.4715 22.1248 17.5352 22.1537 17.5686 22.2334C17.8685 22.9502 18.0218 23.7111 18.0241 24.4947C18.0337 27.6481 15.4548 30.3284 12.2754 30.4694Z" fill="#CEB2FF"/>
</svg>
