<svg width="46" height="45" viewBox="0 0 46 45" fill="none" xmlns="http://www.w3.org/2000/svg">
<path d="M28.7423 16.515C28.4509 16.995 28.0829 17.4375 27.6766 17.8425C30.8889 18.39 32.7366 19.32 32.8209 19.755C32.8209 20.4225 29.4783 21.9825 22.9923 21.9825C16.5139 21.9825 13.1713 20.4225 13.1713 19.7625C13.2556 19.32 15.1109 18.39 18.3233 17.835C17.9093 17.445 17.5336 17.0025 17.2499 16.515C14.4439 17.085 11.6379 18.12 11.6379 19.755V37.53C11.6379 40.0875 17.5259 41.25 22.9923 41.25C28.4663 41.25 34.3466 40.0875 34.3466 37.53V19.8675L34.3389 19.875C34.3389 19.8375 34.3543 19.8 34.3543 19.7625C34.3619 18.12 31.5559 17.085 28.7423 16.515Z" fill="#CEB2FF"/>
<path d="M22.9923 20.205C23.4217 20.205 23.759 19.8675 23.759 19.455V18.7125C24.955 18.1125 27.9143 16.4175 27.9143 14.175C27.9143 11.8125 24.104 4.92 23.667 4.14C23.5443 3.9 23.276 3.75 22.9923 3.75C22.7163 3.75 22.4557 3.9 22.3253 4.14C21.8883 4.92 18.078 11.8125 18.078 14.175C18.078 16.4175 21.022 18.105 22.2257 18.705V19.455C22.2257 19.8675 22.5783 20.205 22.9923 20.205Z" fill="#CEB2FF"/>
</svg>
