<svg width="28" height="28" viewBox="0 0 28 28" fill="none" xmlns="http://www.w3.org/2000/svg">
<g clip-path="url(#clip0_342_41)">
<path d="M11.5388 8.47646C5.20642 8.47646 5.75911e-05 12.8311 5.75911e-05 18.1838C5.75911e-05 20.3235 0.829995 22.498 2.352 24.1834L0.202729 26.6395C-0.0087471 26.8814 -0.060044 27.2251 0.0737763 27.5183C0.206776 27.8114 0.49837 27.9997 0.82037 27.9997H12.3592C17.0347 27.9997 23.0776 23.9736 23.0776 18.1838C23.0776 12.8311 17.8713 8.47646 11.5388 8.47646ZM6.56239 19.6874C5.65797 19.6874 4.92182 18.9512 4.92182 18.0468C4.92182 17.1424 5.65803 16.4063 6.56239 16.4063C7.46676 16.4063 8.20296 17.1425 8.20296 18.0468C8.20302 18.9512 7.46681 19.6874 6.56239 19.6874ZM11.5388 19.6874C10.6344 19.6874 9.89828 18.9512 9.89828 18.0468C9.89828 17.1424 10.6345 16.4063 11.5388 16.4063C12.4432 16.4063 13.1794 17.1425 13.1794 18.0468C13.1794 18.9512 12.4433 19.6874 11.5388 19.6874ZM16.5153 19.6874C15.6109 19.6874 14.8747 18.9512 14.8747 18.0468C14.8747 17.1424 15.6109 16.4063 16.5153 16.4063C17.4197 16.4063 18.1559 17.1425 18.1559 18.0468C18.1559 18.9512 17.4197 19.6874 16.5153 19.6874Z" fill="#CEB2FF"/>
<path d="M27.8015 16.6922L25.8702 14.4388C27.2488 12.8831 27.9994 10.9861 27.9994 9.02355C27.9994 4.04813 23.2154 0.000328064 17.3356 0.000328064C12.0186 0.000328064 7.50135 3.31379 6.70374 7.6265C8.1873 7.12239 9.85106 6.83583 11.5389 6.83583C18.7222 6.83583 24.624 11.8531 24.7103 18.0468H27.1791C27.8798 18.0468 28.2561 17.2217 27.8015 16.6922Z" fill="#CEB2FF"/>
</g>
<defs>
<clipPath id="clip0_342_41">
<rect width="28" height="28" fill="white"/>
</clipPath>
</defs>
</svg>
