<svg width="360" height="520" viewBox="0 0 360 520" fill="none" xmlns="http://www.w3.org/2000/svg">
<path d="M359.929 -206.065H0V895.321H359.929V-206.065Z" fill="#724886"/>
<path d="M100.315 182.988C102.326 182.388 103.328 182.092 105.346 181.527C107.589 180.899 109.276 181.09 110.658 181.894C111.759 182.529 112.648 183.616 112.959 185.069C113.311 186.734 112.881 188.173 112.105 189.338C111.23 190.664 109.776 191.638 107.843 192.181C105.889 192.731 104.915 193.013 102.961 193.599C101.903 189.352 101.373 187.235 100.315 182.988ZM107.279 190.996C110.355 190.128 111.265 187.757 110.8 185.619C110.531 184.399 109.896 183.686 109.064 183.206C107.914 182.55 106.863 182.437 105.12 182.924C104.139 183.199 103.652 183.34 102.672 183.623C103.462 186.868 103.85 188.491 104.64 191.743C105.691 191.433 106.221 191.285 107.272 190.989L107.279 190.996Z" fill="#ECC784"/>
<path d="M126.597 187.644C125.828 186.628 125.447 186.12 124.671 185.111C122.166 185.633 120.924 185.916 118.426 186.501C118.102 187.757 117.94 188.385 117.622 189.634C116.98 189.789 116.663 189.867 116.021 190.022C117.34 185.189 118.038 182.769 119.513 177.95C120.275 177.781 120.656 177.696 121.411 177.534C124.466 181.358 125.955 183.291 128.862 187.193C127.951 187.369 127.5 187.461 126.59 187.644H126.597ZM120.324 179.516C119.675 181.795 119.358 182.931 118.744 185.21C120.79 184.73 121.82 184.505 123.873 184.067C122.469 182.24 121.757 181.33 120.324 179.516Z" fill="#ECC784"/>
<path d="M134.252 181.534C131.79 179.368 130.541 178.296 128.008 176.186C129.038 175.989 129.553 175.89 130.576 175.706C132.58 177.435 133.568 178.303 135.522 180.067C136.919 177.745 137.632 176.588 139.092 174.288C139.812 174.182 140.172 174.126 140.884 174.027C139 176.878 138.076 178.31 136.284 181.196C136.531 183.016 136.658 183.926 136.905 185.753C136.1 185.888 135.698 185.951 134.901 186.092C134.64 184.272 134.513 183.362 134.252 181.541V181.534Z" fill="#ECC784"/>
<path d="M143.876 183.044C144.144 182.55 144.285 182.303 144.553 181.816C145.583 182.451 147.354 183.27 149.633 183.009C151.517 182.79 153.055 182.063 152.935 180.575C152.808 179.044 150.854 178.98 149.344 179.121C147.029 179.333 144.066 179.22 143.791 176.765C143.509 174.246 146.013 172.99 148.342 172.722C150.79 172.44 152.469 172.934 153.655 173.526C153.394 174.013 153.259 174.26 153.005 174.747C151.884 174.175 150.282 173.78 148.568 173.985C147.255 174.133 145.435 174.662 145.59 176.151C145.738 177.527 148.116 177.301 149.421 177.216C151.651 177.068 154.586 177.343 154.805 180.123C155.016 182.776 152.173 184.039 149.852 184.3C147.114 184.61 145.153 183.785 143.869 183.051L143.876 183.044Z" fill="#ECC784"/>
<path d="M164.852 177.16C164.697 173.9 167.625 171.085 171.322 170.965C175.04 170.845 178.088 173.477 178.109 176.736C178.13 179.996 175.223 182.635 171.639 182.748C168.069 182.861 165.007 180.419 164.859 177.16H164.852ZM175.809 176.758C175.774 174.133 174.144 172.087 171.35 172.172C168.535 172.263 166.975 174.415 167.081 177.033C167.187 179.672 168.859 181.633 171.597 181.548C174.313 181.464 175.837 179.396 175.802 176.758H175.809Z" fill="#ECC784"/>
<path d="M182.716 171.24C186.498 171.276 188.396 171.325 192.178 171.494C192.156 172.023 192.149 172.284 192.128 172.814C189.2 172.687 187.74 172.644 184.812 172.588C184.79 174.034 184.783 174.761 184.762 176.214C186.533 176.243 187.415 176.264 189.179 176.327C189.165 176.856 189.158 177.117 189.144 177.647C187.38 177.59 186.505 177.569 184.741 177.534C184.713 179.425 184.699 180.37 184.678 182.268C183.859 182.254 183.45 182.247 182.639 182.24C182.674 177.837 182.688 175.636 182.723 171.24H182.716Z" fill="#ECC784"/>
<path d="M202.944 172.172C203.784 172.242 204.207 172.277 205.054 172.355C204.913 174.218 204.842 175.149 204.701 177.012C207.241 177.244 208.511 177.371 211.044 177.661C211.22 175.805 211.312 174.874 211.488 173.018C212.314 173.11 212.723 173.159 213.549 173.265C213.104 177.64 212.885 179.827 212.441 184.201C211.644 184.102 211.242 184.06 210.444 183.968C210.635 181.943 210.734 180.927 210.924 178.902C208.398 178.613 207.135 178.486 204.602 178.253C204.447 180.285 204.369 181.301 204.221 183.333C203.41 183.263 203.001 183.227 202.182 183.157C202.486 178.768 202.634 176.574 202.937 172.186L202.944 172.172Z" fill="#ECC784"/>
<path d="M217.535 179.319C217.909 176.08 221.246 173.872 224.915 174.479C228.605 175.086 231.188 178.268 230.687 181.478C230.179 184.695 226.884 186.72 223.328 186.141C219.786 185.563 217.161 182.557 217.535 179.326V179.319ZM228.415 181.054C228.803 178.465 227.526 176.13 224.753 175.678C221.959 175.22 220.082 177.04 219.758 179.636C219.44 182.254 220.774 184.512 223.483 184.956C226.178 185.401 228.02 183.665 228.408 181.054H228.415Z" fill="#ECC784"/>
<path d="M236.126 176.962C238.25 177.4 239.308 177.633 241.432 178.112C243.767 178.641 244.677 179.128 245.447 180.278C245.856 180.927 246.025 181.732 245.87 182.501C245.729 183.185 245.228 183.954 244.452 184.385C243.64 184.829 242.54 184.928 241.164 184.61C239.534 184.237 238.716 184.053 237.086 183.7C236.768 185.499 236.606 186.403 236.281 188.202C235.477 188.032 235.075 187.941 234.271 187.778C235.011 183.453 235.385 181.294 236.126 176.969V176.962ZM241.241 183.34C242.483 183.623 243.499 183.171 243.732 181.986C244.043 180.405 242.878 179.777 241.425 179.446C240.049 179.128 239.358 178.98 237.975 178.684C237.707 180.201 237.573 180.956 237.297 182.473C238.871 182.811 239.661 182.988 241.234 183.348L241.241 183.34Z" fill="#ECC784"/>
<path d="M250.237 180.257C253.97 181.231 255.825 181.753 259.537 182.861L259.219 184.138C256.347 183.277 254.901 182.868 252.015 182.092C251.726 183.39 251.578 184.039 251.289 185.344C252.918 185.782 253.73 186.007 255.36 186.473C255.24 186.974 255.183 187.228 255.063 187.729C253.448 187.263 252.636 187.045 251.014 186.607C250.696 188.039 250.534 188.759 250.209 190.191C253.187 190.996 254.675 191.419 257.632 192.308C257.505 192.823 257.441 193.084 257.307 193.606C253.561 192.484 251.684 191.955 247.916 190.967C248.847 186.685 249.313 184.547 250.237 180.264V180.257Z" fill="#ECC784"/>
<path d="M79.0498 268.853C78.5065 270.335 78.1467 271.506 77.9773 272.367C77.801 273.235 77.7657 273.884 77.8645 274.328C77.9138 274.871 78.0902 275.217 78.3795 275.365H73.7864C74.1321 275.217 74.5272 274.871 74.9717 274.328C75.3174 273.884 75.7337 273.228 76.2276 272.367C76.7215 271.506 77.2647 270.328 77.8574 268.853L95.475 223.543H98.3607L115.682 268.853C116.225 270.285 116.74 271.421 117.234 272.261C117.728 273.101 118.144 273.764 118.49 274.258C118.935 274.801 119.33 275.175 119.675 275.365H109.678C109.974 275.118 110.143 274.723 110.193 274.18C110.292 273.686 110.277 273.023 110.157 272.183C110.038 271.344 109.699 270.236 109.156 268.853L105.6 259.745H82.5775L79.0216 268.853H79.0498ZM82.9726 258.933H105.261L94.3743 229.766L82.9726 258.933Z" fill="#ECC784"/>
<path d="M159.532 269.001C159.532 270.285 159.602 271.344 159.751 272.183C159.899 273.023 160.096 273.686 160.343 274.18C160.541 274.723 160.788 275.118 161.084 275.365C159.553 275.365 158.283 275.316 157.274 275.217C156.265 275.118 155.447 274.9 154.833 274.554C154.212 274.208 153.768 273.693 153.499 273.002C153.224 272.31 153.09 271.372 153.09 270.187V268.634C152.596 269.573 151.905 270.434 151.016 271.224C150.127 272.014 149.09 272.705 147.904 273.298C146.719 273.891 145.435 274.356 144.052 274.702C142.669 275.048 141.216 275.217 139.685 275.217C137.265 275.217 134.908 274.857 132.615 274.145C130.322 273.432 128.269 272.296 126.47 270.737C124.671 269.185 123.224 267.174 122.138 264.704C121.051 262.235 120.508 259.251 120.508 255.744C120.508 252.237 121.051 249.387 122.138 246.896C123.224 244.406 124.628 242.353 126.357 240.751C128.086 239.149 130.019 237.964 132.171 237.195C134.316 236.433 136.475 236.045 138.648 236.045C140.426 236.045 142.154 236.292 143.833 236.786C145.513 237.28 147.001 238.006 148.314 238.973C149.619 239.933 150.684 241.132 151.496 242.564C152.307 243.997 152.766 245.626 152.864 247.454C152.568 245.923 152.025 244.554 151.235 243.347C150.444 242.141 149.492 241.104 148.384 240.236C147.277 239.375 146.056 238.719 144.722 238.275C143.389 237.83 142.006 237.611 140.574 237.611C138.895 237.611 137.251 237.957 135.649 238.649C134.047 239.34 132.601 240.412 131.317 241.866C130.033 243.319 128.996 245.21 128.205 247.531C127.415 249.853 127.02 252.64 127.02 255.899C127.02 258.813 127.387 261.388 128.128 263.639C128.869 265.883 129.842 267.788 131.049 269.34C132.255 270.892 133.652 272.078 135.233 272.896C136.813 273.707 138.443 274.117 140.122 274.117C142.048 274.117 143.812 273.785 145.414 273.115C147.015 272.451 148.384 271.534 149.52 270.377C150.656 269.22 151.531 267.872 152.145 266.341C152.759 264.81 153.069 263.18 153.069 261.452V220.064L161.063 222.287C160.767 222.583 160.52 223.056 160.322 223.691C160.075 224.234 159.878 224.94 159.729 225.8C159.581 226.661 159.511 227.811 159.511 229.244V269.001H159.532Z" fill="#ECC784"/>
<path d="M194.993 236.645C194.647 236.793 194.28 237.139 193.885 237.682C193.49 238.126 193.046 238.783 192.552 239.643C192.058 240.504 191.514 241.682 190.922 243.157L178.412 275.365H175.379L164.421 243.157C163.878 241.725 163.363 240.582 162.869 239.714C162.375 238.853 161.931 238.197 161.536 237.752C161.091 237.209 160.696 236.842 160.35 236.645H169.974C169.678 236.892 169.501 237.287 169.459 237.83C169.36 238.275 169.36 238.917 169.459 239.756C169.558 240.596 169.826 241.732 170.27 243.164L179.231 270.483L189.744 243.164C190.336 241.682 190.703 240.511 190.851 239.65C190.999 238.79 191.049 238.133 190.999 237.689C190.901 237.146 190.724 236.8 190.484 236.652H195L194.993 236.645Z" fill="#ECC784"/>
<path d="M196.771 254.714C196.771 257.825 197.286 260.528 198.323 262.821C199.36 265.114 200.694 267.026 202.323 268.557C203.953 270.088 205.802 271.238 207.876 272C209.95 272.769 212.046 273.15 214.17 273.15C215.701 273.15 217.189 272.952 218.65 272.557C220.103 272.162 221.465 271.569 222.721 270.779C223.977 269.989 225.092 269.001 226.051 267.816C227.011 266.631 227.766 265.248 228.309 263.667C228.161 265.1 227.688 266.518 226.905 267.922C226.115 269.326 225.056 270.589 223.723 271.696C222.389 272.804 220.774 273.707 218.876 274.399C216.978 275.09 214.819 275.436 212.399 275.436C209.287 275.436 206.387 274.97 203.699 274.032C201.011 273.093 198.676 271.753 196.7 269.996C194.725 268.246 193.172 266.137 192.037 263.667C190.901 261.198 190.336 258.411 190.336 255.299C190.336 252.188 190.865 249.549 191.931 247.228C192.989 244.907 194.407 242.974 196.185 241.414C197.963 239.855 200.023 238.691 202.366 237.901C204.708 237.11 207.164 236.715 209.732 236.715C212.3 236.715 214.755 237.04 217.098 237.675C219.44 238.317 221.514 239.354 223.314 240.786C225.113 242.219 226.559 244.067 227.646 246.339C228.732 248.611 229.276 251.377 229.276 254.629L196.771 254.7V254.714ZM209.725 237.759C207.996 237.759 206.366 238.07 204.835 238.684C203.304 239.305 201.971 240.264 200.835 241.569C199.699 242.875 198.775 244.519 198.055 246.494C197.342 248.47 196.933 250.812 196.834 253.529H222.968C222.968 251.355 222.721 249.323 222.227 247.418C221.733 245.521 220.943 243.855 219.856 242.423C218.77 240.991 217.387 239.855 215.708 239.015C214.029 238.176 212.032 237.759 209.711 237.759H209.725Z" fill="#ECC784"/>
<path d="M231.195 275.365C231.491 275.168 231.738 274.801 231.936 274.258C232.133 273.764 232.302 273.108 232.451 272.296C232.599 271.485 232.669 270.384 232.669 269.001V243.975C232.669 242.889 232.599 242.028 232.451 241.386C232.302 240.744 232.126 240.229 231.936 239.834C231.738 239.439 231.491 239.142 231.195 238.945L239.189 236.652V269.523C239.189 270.807 239.04 271.831 238.744 272.593C238.448 273.362 237.975 273.947 237.34 274.37C236.698 274.794 235.873 275.062 234.857 275.182C233.848 275.309 232.62 275.365 231.195 275.365ZM256.665 275.365C256.863 274.822 257.173 274.095 257.589 273.178C258.006 272.268 258.217 270.871 258.217 268.994V247.524C258.217 246.043 257.984 244.737 257.512 243.601C257.039 242.466 256.404 241.527 255.586 240.786C254.767 240.045 253.857 239.481 252.848 239.086C251.839 238.691 250.76 238.493 249.631 238.493C248.594 238.493 247.542 238.677 246.484 239.051C245.426 239.418 244.424 239.975 243.485 240.716C242.547 241.457 241.736 242.381 241.044 243.496C240.353 244.603 239.809 245.93 239.414 247.454C239.711 245.528 240.268 243.891 241.079 242.529C241.891 241.174 242.872 240.045 244.007 239.164C245.143 238.275 246.399 237.618 247.782 237.202C249.165 236.786 250.569 236.574 252.001 236.574C253.582 236.574 255.134 236.807 256.665 237.28C258.196 237.752 259.551 238.43 260.736 239.319C261.921 240.208 262.874 241.266 263.587 242.501C264.299 243.736 264.659 245.14 264.659 246.72V269.079C264.659 270.165 264.729 271.09 264.878 271.859C265.026 272.628 265.195 273.277 265.4 273.82C265.597 274.462 265.844 274.977 266.141 275.372H256.665V275.365Z" fill="#ECC784"/>
<path d="M279.391 267.668C279.391 269.248 279.708 270.349 280.35 270.963C280.992 271.584 281.684 271.887 282.425 271.887C282.968 271.887 283.483 271.753 283.977 271.478C284.471 271.21 284.788 270.899 284.937 270.554C284.937 271.739 284.365 272.839 283.236 273.848C282.1 274.864 280.668 275.365 278.939 275.365C278.643 275.365 278.163 275.316 277.493 275.217C276.83 275.118 276.159 274.822 275.496 274.328C274.833 273.834 274.24 273.058 273.718 271.993C273.203 270.934 272.942 269.467 272.942 267.59V237.456H267.686V236.645H272.942V234.796C272.942 233.71 272.872 232.8 272.723 232.059C272.575 231.318 272.399 230.704 272.208 230.21C271.961 229.617 271.693 229.152 271.397 228.806L279.391 226.513V236.659H285.684V237.47H279.391V267.675V267.668Z" fill="#ECC784"/>
<path d="M46.8556 247.348C47.9492 247.143 48.5842 246.903 48.5842 246.311C48.5842 245.866 48.0974 245.549 47.3001 245.549C46.2559 245.549 45.5433 246.014 44.6896 246.614L43.9276 245.866C44.8096 245.055 45.8538 244.512 47.3778 244.512C48.9017 244.512 50.3904 245.104 50.3904 246.402C50.3904 247.701 49.1346 248.343 47.159 248.667C46.1501 248.837 45.501 249.253 45.4022 249.754H50.2776V251.165H43.9911C43.7865 248.978 44.9013 247.715 46.8556 247.348Z" fill="#D3AC70"/>
<path d="M52.3448 247.969C52.3448 246.05 53.9747 244.54 55.9996 244.54C58.0245 244.54 59.6685 246.05 59.6685 247.969C59.6685 249.888 58.0386 251.348 55.9996 251.348C53.9606 251.348 52.3448 249.853 52.3448 247.969ZM57.6435 247.969C57.6435 246.607 57.0932 245.506 55.9996 245.506C54.906 245.506 54.3416 246.6 54.3416 247.969C54.3416 249.338 54.906 250.431 55.9996 250.431C57.0932 250.431 57.6435 249.323 57.6435 247.969Z" fill="#D3AC70"/>
<path d="M303.627 247.348C304.72 247.143 305.355 246.903 305.355 246.311C305.355 245.866 304.868 245.549 304.071 245.549C303.027 245.549 302.314 246.014 301.461 246.614L300.699 245.866C301.581 245.055 302.625 244.512 304.149 244.512C305.673 244.512 307.161 245.104 307.161 246.402C307.161 247.701 305.906 248.343 303.93 248.667C302.921 248.837 302.272 249.253 302.173 249.754H307.049V251.165H300.762C300.557 248.978 301.672 247.715 303.627 247.348Z" fill="#D3AC70"/>
<path d="M309.278 250.332L309.864 249.373C310.548 249.719 311.62 250.332 312.82 250.332C313.949 250.332 314.351 249.782 314.351 248.971C314.351 248.159 313.85 247.764 312.926 247.764C312.001 247.764 311.437 248.152 310.851 248.576L310.082 248.039V244.759H315.896L315.43 246.071H311.105V247.623C311.656 247.299 312.312 246.875 313.518 246.875C315.254 246.875 316.524 247.708 316.524 248.971C316.524 250.234 315.212 251.363 313.102 251.363C311.345 251.363 309.998 250.77 309.285 250.332H309.278Z" fill="#D3AC70"/>
<path d="M84.0099 195.723C84.7191 195.723 85.294 195.148 85.294 194.439C85.294 193.73 84.7191 193.155 84.0099 193.155C83.3007 193.155 82.7258 193.73 82.7258 194.439C82.7258 195.148 83.3007 195.723 84.0099 195.723Z" fill="#ECC784"/>
<path d="M275.842 195.723C276.551 195.723 277.126 195.148 277.126 194.439C277.126 193.73 276.551 193.155 275.842 193.155C275.133 193.155 274.558 193.73 274.558 194.439C274.558 195.148 275.133 195.723 275.842 195.723Z" fill="#ECC784"/>
<path d="M143.968 313.874C143.848 313.783 143.664 313.811 143.594 313.91C143.516 314.029 143.53 314.178 143.671 314.241C143.819 314.312 143.982 314.164 144.073 314.044C144.356 313.634 144.476 313.176 144.447 312.675C144.334 310.876 142.302 309.846 140.376 310.339C138.281 310.876 137.124 312.858 138.147 315.772C140.659 322.926 152.984 322.898 158.417 318.82C153.041 322.157 142.232 322.905 139.191 315.709C138.373 313.783 138.739 311.581 140.659 311.017C142.944 310.346 144.857 312.421 143.968 313.867V313.874Z" fill="#DDBA75"/>
<path d="M108.683 317.219C105.79 318.806 103.568 322.002 103.137 324.937C103.017 325.77 101.987 325.636 102.185 324.726C102.89 321.501 105.466 317.79 110.193 316.019C125.609 310.241 140.616 328.458 156.9 322.729C141.519 330.271 121.284 310.283 108.676 317.219H108.683Z" fill="#DDBA75"/>
<path d="M149.739 322.503C135.007 324.429 119.436 301.915 94.9601 316.428C117.926 299.354 133.836 322.919 149.739 322.503Z" fill="#DDBA75"/>
<path d="M217.359 313.874C217.479 313.783 217.662 313.811 217.726 313.91C217.796 314.029 217.789 314.178 217.648 314.241C217.5 314.312 217.338 314.164 217.246 314.044C216.964 313.634 216.844 313.176 216.872 312.675C216.985 310.876 219.01 309.846 220.943 310.339C223.038 310.876 224.195 312.858 223.172 315.772C220.654 322.926 208.335 322.898 202.902 318.82C208.278 322.157 219.087 322.905 222.135 315.709C222.947 313.783 222.587 311.581 220.661 311.017C218.375 310.346 216.463 312.421 217.352 313.867L217.359 313.874Z" fill="#DDBA75"/>
<path d="M252.643 317.219C255.536 318.806 257.758 322.002 258.189 324.937C258.309 325.77 259.339 325.636 259.141 324.726C258.436 321.501 255.861 317.79 251.133 316.019C235.717 310.241 220.71 328.458 204.426 322.729C219.807 330.271 240.042 310.283 252.65 317.219H252.643Z" fill="#DDBA75"/>
<path d="M211.587 322.503C226.319 324.429 241.891 301.915 266.366 316.428C243.401 299.354 227.483 322.919 211.587 322.503Z" fill="#DDBA75"/>
<path d="M181.482 321.494C186.689 324.641 191.987 325.84 196.072 325.579C203.445 325.107 201.547 318.432 194.739 320.154C184.304 322.785 178.236 331.365 168.965 332.056C162.636 332.529 161.86 326.729 169.614 327.47C176.155 328.098 183.789 333.206 183.556 336.84C183.429 338.773 181.693 338.703 181.079 340.579C181.079 338.773 182.526 338.625 182.526 336.713C182.526 333.496 177.714 328.656 169.84 327.844C164.259 327.273 163.751 331.351 169.134 331.224C178.137 331.019 185.8 322.15 194.379 319.589C204.327 316.619 205.442 327.484 194.887 326.539C182.561 325.438 177.107 315.497 164.471 316.668C172.006 314.375 174.708 317.395 181.496 321.494H181.482Z" fill="#DDBA75"/>
<path d="M179.845 321.494C174.638 324.641 169.346 325.84 165.261 325.579C157.888 325.107 159.786 318.432 166.602 320.154C177.03 322.785 183.104 331.365 192.375 332.056C198.704 332.529 199.48 326.729 191.726 327.47C185.193 328.098 177.552 333.206 177.792 336.84C177.919 338.773 179.654 338.703 180.268 340.579C180.268 338.773 178.822 338.625 178.822 336.713C178.822 333.496 183.634 328.656 191.508 327.844C197.088 327.273 197.596 331.351 192.213 331.224C183.21 331.019 175.548 322.15 166.969 319.589C157.02 316.619 155.898 327.484 166.453 326.539C178.779 325.438 184.24 315.497 196.877 316.668C189.341 314.375 186.639 317.395 179.852 321.494H179.845Z" fill="#DDBA75"/>
</svg>
