<svg width="62" height="84" viewBox="0 0 62 84" fill="none" xmlns="http://www.w3.org/2000/svg">
<mask id="path-1-inside-1_339_636" fill="white">
<path d="M30.9639 0C40.125 6.57003e-05 47.5573 7.3962 47.6182 16.543H61.9277V83.4736H0V16.543H14.3096C14.3705 7.39616 21.8027 0 30.9639 0Z"/>
</mask>
<path d="M30.9639 0L30.9639 -1H30.9639V0ZM47.6182 16.543L46.6182 16.5496L46.6248 17.543H47.6182V16.543ZM61.9277 16.543H62.9277V15.543H61.9277V16.543ZM61.9277 83.4736V84.4736H62.9277V83.4736H61.9277ZM0 83.4736H-1V84.4736H0V83.4736ZM0 16.543V15.543H-1V16.543H0ZM14.3096 16.543V17.543H15.3029L15.3095 16.5496L14.3096 16.543ZM30.9639 0L30.9639 1C39.5748 1.00006 46.5609 7.95205 46.6182 16.5496L47.6182 16.543L48.6181 16.5363C48.5536 6.84035 40.6751 -0.99993 30.9639 -1L30.9639 0ZM47.6182 16.543V17.543H61.9277V16.543V15.543H47.6182V16.543ZM61.9277 16.543H60.9277V83.4736H61.9277H62.9277V16.543H61.9277ZM61.9277 83.4736V82.4736H0V83.4736V84.4736H61.9277V83.4736ZM0 83.4736H1V16.543H0H-1V83.4736H0ZM0 16.543V17.543H14.3096V16.543V15.543H0V16.543ZM14.3096 16.543L15.3095 16.5496C15.3668 7.952 22.3529 1 30.9639 1V0V-1C21.2525 -1 13.3741 6.84031 13.3096 16.5363L14.3096 16.543Z" fill="white" mask="url(#path-1-inside-1_339_636)"/>
</svg>
